<svg xmlns="http://www.w3.org/2000/svg" width="11.039" height="18.375" viewBox="0 0 11.039 18.375"><defs><style>.a{fill:#70ae6e;}</style></defs><path class="a" d="M107.006,5.668a1.63,1.63,0,0,0-.639-2.01l1.371-2.8a.593.593,0,0,0-.72-.823l-1.5.5L104.867.1a.593.593,0,0,0-.681.016l-.6.444-1.52-.528a.593.593,0,0,0-.726.821l1.371,2.8a1.63,1.63,0,0,0-.639,2.01,4.3,4.3,0,0,0-3.052,4.113v5.631a2.967,2.967,0,0,0,2.964,2.964h5.112a2.967,2.967,0,0,0,2.964-2.964V9.781A4.3,4.3,0,0,0,107.006,5.668Zm-3.747,3.965a.8.8,0,1,1-.8.8A.8.8,0,0,1,103.258,9.633Zm.317-5.038H105.5a.445.445,0,1,1,0,.889h-1.926a.445.445,0,0,1,0-.889Zm2.243,9.705a.8.8,0,1,1,.8-.8A.8.8,0,0,1,105.819,14.3Zm.675-3.451-3.072,3.072a.593.593,0,1,1-.838-.838l3.072-3.072a.593.593,0,1,1,.838.838Z" transform="translate(-99.019 0)"/></svg>